<svg xmlns="http://www.w3.org/2000/svg" viewBox="0 0 100 100">
  <rect width="100" height="100" fill="#000000"/>
  <g transform="translate(50, 50)">
    <!-- Bull silhouette -->
    <path d="M-20,-15 C-25,-15 -30,-10 -30,-5 C-30,0 -25,5 -20,5 L-15,5 C-10,5 -5,10 0,15 C5,10 10,5 15,5 L20,5 C25,5 30,0 30,-5 C30,-10 25,-15 20,-15 C15,-15 10,-10 5,-5 C0,-10 -5,-15 -10,-15 L-20,-15 Z" fill="#FFD700"/>
    <!-- Bull body -->
    <ellipse cx="0" cy="0" rx="15" ry="20" fill="#FFD700"/>
    <!-- Bull head -->
    <ellipse cx="0" cy="-10" rx="8" ry="6" fill="#FFD700"/>
    <!-- Horns -->
    <path d="M-6,-16 L-4,-20 L-2,-16 Z" fill="#FFD700"/>
    <path d="M6,-16 L4,-20 L2,-16 Z" fill="#FFD700"/>
  </g>
</svg> 